<?xml version="1.0" standalone="no"?><!DOCTYPE svg PUBLIC "-//W3C//DTD SVG 1.1//EN" "http://www.w3.org/Graphics/SVG/1.1/DTD/svg11.dtd"><svg t="1541312298414" class="icon" style="" viewBox="0 0 1024 1024" version="1.1" xmlns="http://www.w3.org/2000/svg" p-id="3730" xmlns:xlink="http://www.w3.org/1999/xlink" width="200" height="200"><defs><style type="text/css"></style></defs><path d="M498.88 938.656c-181.28 0-328.224-71.648-328.224-160V688.64c0 88.352 146.944 143.328 328.224 143.328s328.192-54.976 328.192-143.328v90.016c0 88.352-146.944 160-328.192 160z m0-160c-181.28 0-328.224-71.648-328.224-160v-89.984C170.656 617.024 317.6 672 498.88 672s328.192-54.976 328.192-143.328v89.984c0 88.352-146.944 160-328.192 160z m0-160c-181.28 0-328.224-71.648-328.224-160v-89.984C170.656 457.024 317.6 512 498.88 512s328.192-54.976 328.192-143.328v89.984c0 88.352-146.944 160-328.192 160z m0-160c-181.28 0-328.224-71.648-328.224-160v-53.344c0-88.352 146.944-160 328.224-160s328.192 71.648 328.192 160v53.344c0 88.352-146.944 160-328.192 160z" fill="" p-id="3731"></path></svg>