<?xml version="1.0" standalone="no"?><!DOCTYPE svg PUBLIC "-//W3C//DTD SVG 1.1//EN" "http://www.w3.org/Graphics/SVG/1.1/DTD/svg11.dtd"><svg t="1541310912961" class="icon" style="" viewBox="0 0 1024 1024" version="1.1" xmlns="http://www.w3.org/2000/svg" p-id="1270" xmlns:xlink="http://www.w3.org/1999/xlink" width="200" height="200"><defs><style type="text/css"></style></defs><path d="M512 512m-512 0a512 512 0 1 0 1024 0 512 512 0 1 0-1024 0Z" fill="#FFC200" p-id="1271"></path><path d="M512 0c-13.488 0-26.8 0.68-40 1.704C736.064 22.144 944 242.696 944 512s-207.936 489.856-472.008 510.296c13.208 1.024 26.52 1.704 40 1.704C794.784 1024 1024 794.784 1024 512S794.784 0 512 0z" fill="#F2B800" p-id="1272"></path><path d="M269.264 888.544C96 776-34.72 456.2 206.936 288.976c3.528-2.448 7.832-3.264 11.888-2.32s7.536 3.544 9.72 7.264c145.792 219.4 331.656 340.144 591.384 384.136 8.456 0.928 14.4 8.192 13.448 16.608-11.232 99.104-78.472 183.664-166.952 225.28-140.368 66.024-272.624 31.888-397.16-31.4z" fill="#F2B800" p-id="1273"></path><path d="M817.288 693.632c-36.64 282.496-394.24 274.704-539.368 181.456-151.136-97.128-291.392-408.016-62.512-572.424 148.328 223.32 337.56 346.208 601.88 390.968z" fill="#F5F5F5" p-id="1274"></path><path d="M520.632 307.752a23.984 23.984 0 0 1-7.056-33.184c21.624-33.296 12.128-77.976-21.168-99.6s-77.968-12.136-99.592 21.168a24.008 24.008 0 0 1-33.192 7.064 24.008 24.008 0 0 1-7.056-33.192c36.04-55.504 110.504-71.328 165.984-35.288 55.504 36.04 71.328 110.504 35.296 166a24.04 24.04 0 0 1-33.216 7.032zM856.112 525.608a24 24 0 0 1-7.064-33.2c21.624-33.296 12.128-77.968-21.168-99.592-33.288-21.624-77.968-12.136-99.592 21.168a23.984 23.984 0 1 1-40.248-26.136c36.04-55.496 110.504-71.312 165.992-35.28 55.504 36.048 71.328 110.504 35.288 166a24.024 24.024 0 0 1-33.208 7.04z" fill="#263740" p-id="1275"></path></svg>