<?xml version="1.0" standalone="no"?><!DOCTYPE svg PUBLIC "-//W3C//DTD SVG 1.1//EN" "http://www.w3.org/Graphics/SVG/1.1/DTD/svg11.dtd"><svg t="1541312543544" class="icon" style="" viewBox="0 0 1024 1024" version="1.1" xmlns="http://www.w3.org/2000/svg" p-id="8088" xmlns:xlink="http://www.w3.org/1999/xlink" width="200" height="200"><defs><style type="text/css"></style></defs><path d="M0 0" p-id="8089"></path><path d="M789.333333 1003.997867c-5.461333 0-10.922667-2.093511-15.0528-6.291911L594.944 818.3808a17.931378 17.931378 0 0 1-1.809067-2.048c-24.894578-24.382578-38.468267-56.558933-38.468266-91.067733 0-70.5536 57.412267-128 128-128 44.509867 0 83.672178 22.801067 106.666666 57.378133 22.983111-34.577067 62.122667-57.378133 106.666667-57.378133 70.587733 0 128 57.4464 128 128 0 34.463289-13.573689 66.616889-38.331733 90.9312-0.6144 0.7168-1.160533 1.467733-1.877334 2.139022L804.386133 997.694578a20.775822 20.775822 0 0 1-15.0528 6.303289z" p-id="8090"></path><path d="M512 0C229.6832 0 0 229.6832 0 512s229.6832 512 512 512c65.661156 0 130.616889-12.8 191.0784-37.0688l-101.7856-101.7856c-29.149867 6.929067-58.88 10.8544-89.2928 10.8544-211.729067 0-384-172.270933-384-384 0-11.810133 9.5232-21.333333 21.333333-21.333333S170.666667 500.189867 170.666667 512c0 188.2112 153.122133 341.333333 341.333333 341.333333 17.92 0 35.5328-1.729422 52.974933-4.5056l-2.1504-2.116266-1.1264-1.399467C529.7152 813.090133 512 770.605511 512 725.333333c0-94.071467 76.5952-170.666667 170.666667-170.666666 39.3216 0 76.8 13.5168 106.666666 37.4784 17.783467-14.267733 38.4-24.2688 60.359111-30.481067 2.309689-16.304356 3.640889-32.9728 3.640889-49.664 0-11.810133 9.5232-21.333333 21.333334-21.333333s21.333333 9.5232 21.333333 21.333333c0 14.404267-1.604267 28.672-3.208533 42.928356 1.058133 0 2.1504-0.261689 3.208533-0.261689 46.523733 0 88.6784 18.796089 119.3984 49.083733C1020.928 573.610667 1024 542.958933 1024 512 1024 229.649067 794.3168 0 512 0z m-106.666667 384a21.2992 21.2992 0 0 1-21.333333-21.333333c0-35.293867-28.706133-64-64-64S256 327.3728 256 362.666667c0 11.810133-9.5232 21.333333-21.333333 21.333333s-21.333333-9.5232-21.333334-21.333333c0-58.845867 47.786667-106.666667 106.666667-106.666667s106.666667 47.8208 106.666667 106.666667c0 11.810133-9.557333 21.333333-21.333334 21.333333z m384 0a21.2992 21.2992 0 0 1-21.333333-21.333333 64.079644 64.079644 0 0 0-64-64 64.045511 64.045511 0 0 0-64 64c0 11.810133-9.5232 21.333333-21.333333 21.333333s-21.333333-9.5232-21.333334-21.333333c0-58.845867 47.786667-106.666667 106.666667-106.666667 58.845867 0 106.666667 47.8208 106.666667 106.666667a21.2992 21.2992 0 0 1-21.333334 21.333333z" p-id="8091"></path></svg>