<?xml version="1.0" standalone="no"?><!DOCTYPE svg PUBLIC "-//W3C//DTD SVG 1.1//EN" "http://www.w3.org/Graphics/SVG/1.1/DTD/svg11.dtd"><svg t="1541313878631" class="icon" style="" viewBox="0 0 1080 1024" version="1.1" xmlns="http://www.w3.org/2000/svg" p-id="13122" xmlns:xlink="http://www.w3.org/1999/xlink" width="210.9375" height="200"><defs><style type="text/css"></style></defs><path d="M1077.806898 479.344674a581.652175 581.652175 0 0 0-140.027375-315.734804A307.656301 307.656301 0 0 1 875.844338 70.707092c0-4.039251 0-7.405294-6.058877-10.771336a77.418982 77.418982 0 0 1-37.699678 54.529891 175.707428 175.707428 0 0 0-30.967593 28.274759 488.076188 488.076188 0 0 0-107.040157 151.47192 594.443137 594.443137 0 0 0-52.510266 172.341385 457.781804 457.781804 0 0 0 42.412138 280.054751 476.631643 476.631643 0 0 0 116.465077 154.164755 892.00131 892.00131 0 0 1-5.385669 115.791868l90.209944 7.405294a816.601954 816.601954 0 0 1 10.771337-122.523954A392.480576 392.480576 0 0 0 1056.264225 673.228732a436.91234 436.91234 0 0 0 17.503422-92.22957A325.159723 325.159723 0 0 0 1077.806898 479.344674zM453.742586 377.690185c37.026469 0 72.706522 0 107.040157-5.385669A683.306664 683.306664 0 0 1 606.560923 253.819814a605.887682 605.887682 0 0 1 125.216788-176.380636 216.773148 216.773148 0 0 1 28.274758-26.928342L741.20263 43.778751c-19.523048-6.732085-40.392512-12.790962-61.935185-18.17663A964.707831 964.707831 0 0 0 455.089003 0.020196a996.348633 996.348633 0 0 0-224.851651 24.235508q-33.660427 8.078502-62.608394 18.17663a526.449075 526.449075 0 0 0-61.261977 24.908716 306.983092 306.983092 0 0 0-49.144223 30.294384A232.930153 232.930153 0 0 0 22.889123 134.661903a128.58283 128.58283 0 0 0-10.771337 18.176631 84.151067 84.151067 0 0 0-11.444545 34.333635C0.673241 291.519492 202.635802 377.016976 453.742586 377.690185zM585.691459 768.824344a1205.716487 1205.716487 0 0 1-134.641707 7.405294c-197.250101 0-359.493358-46.451389-451.049719-119.157911v176.380636c0 104.347323 201.962561 189.171598 451.049719 190.518016a960.66858 960.66858 0 0 0 244.374698-29.621176c0-12.117754 0-30.294384 3.366043-52.510266a581.652175 581.652175 0 0 1-105.69374-152.145129c-2.692834-6.732085-4.71246-14.137379-7.405294-20.869464zM452.396169 700.830282a1056.937401 1056.937401 0 0 0 105.69374-5.385669 557.416667 557.416667 0 0 1-14.13738-243.701489c-28.947967 0-59.242351 3.366043-90.209943 3.366042a933.740239 933.740239 0 0 1-350.068439-61.935185 426.141003 426.141003 0 0 1-80.111816-44.431763A243.70149 243.70149 0 0 1 0.673241 336.624464v173.687802c0 104.347323 201.962561 189.844807 451.722928 190.518016z" p-id="13123"></path></svg>