<?xml version="1.0" standalone="no"?><!DOCTYPE svg PUBLIC "-//W3C//DTD SVG 1.1//EN" "http://www.w3.org/Graphics/SVG/1.1/DTD/svg11.dtd"><svg t="1541312554333" class="icon" style="" viewBox="0 0 1024 1024" version="1.1" xmlns="http://www.w3.org/2000/svg" p-id="8832" xmlns:xlink="http://www.w3.org/1999/xlink" width="200" height="200"><defs><style type="text/css"></style></defs><path d="M176.304913 396.195507c-61.631686 0-111.595634 51.828412-111.595634 115.705232 0 63.925938 49.963948 115.729791 111.595634 115.729791 61.632709 0 111.595634-51.803853 111.595634-115.729791C287.900547 448.024943 237.937622 396.195507 176.304913 396.195507zM511.092839 396.195507c-61.631686 0-111.595634 51.828412-111.595634 115.705232 0 63.925938 49.963948 115.729791 111.595634 115.729791 61.632709 0 111.597681-51.803853 111.597681-115.729791C622.69052 448.024943 572.725548 396.195507 511.092839 396.195507zM845.881788 396.195507c-61.632709 0-111.595634 51.828412-111.595634 115.705232 0 63.925938 49.962925 115.729791 111.595634 115.729791s111.596657-51.803853 111.596657-115.729791C957.478446 448.024943 907.514497 396.195507 845.881788 396.195507z" p-id="8833"></path></svg>