<?xml version="1.0" standalone="no"?><!DOCTYPE svg PUBLIC "-//W3C//DTD SVG 1.1//EN" "http://www.w3.org/Graphics/SVG/1.1/DTD/svg11.dtd"><svg t="1541310931553" class="icon" style="" viewBox="0 0 1024 1024" version="1.1" xmlns="http://www.w3.org/2000/svg" p-id="2000" xmlns:xlink="http://www.w3.org/1999/xlink" width="200" height="200"><defs><style type="text/css"></style></defs><path d="M512 512m-487.619048 0a487.619048 487.619048 0 1 0 975.238096 0 487.619048 487.619048 0 1 0-975.238096 0Z" fill="#FFD24E" p-id="2001"></path><path d="M375.466667 502.247619c-12.190476-9.752381-34.133333-14.628571-58.514286-14.628571s-46.32381 4.87619-58.514286 14.628571c-26.819048-19.504762-46.32381-51.2-46.323809-87.771429 0-58.514286 46.32381-104.838095 104.838095-104.838095s104.838095 46.32381 104.838095 104.838095c0 36.571429-17.066667 68.266667-46.323809 87.771429z" fill="#FFFFFF" p-id="2002"></path><path d="M353.52381 414.47619c0 19.504762-17.066667 36.571429-36.571429 36.571429s-36.571429-17.066667-36.571429-36.571429 17.066667-36.571429 36.571429-36.571428c19.504762 2.438095 36.571429 17.066667 36.571429 36.571428" fill="#51636C" p-id="2003"></path><path d="M348.647619 577.828571c0 17.066667-29.257143 31.695238-65.828571 31.695239-34.133333 0-63.390476-14.628571-63.390477-31.695239s29.257143-31.695238 65.828572-31.695238c36.571429 0 63.390476 14.628571 63.390476 31.695238" fill="#FFBDA9" p-id="2004"></path><path d="M743.619048 504.685714C731.428571 494.933333 707.047619 487.619048 682.666667 487.619048c-21.942857 0-41.447619 4.87619-53.638096 12.190476-26.819048-19.504762-43.885714-48.761905-43.885714-85.333334 0-58.514286 46.32381-104.838095 104.838095-104.838095s104.838095 46.32381 104.838096 104.838095c-2.438095 39.009524-21.942857 70.704762-51.2 90.209524z" fill="#FFFFFF" p-id="2005"></path><path d="M689.980952 414.47619m-34.133333 0a34.133333 34.133333 0 1 0 68.266667 0 34.133333 34.133333 0 1 0-68.266667 0Z" fill="#51636C" p-id="2006"></path><path d="M814.32381 577.828571c0 17.066667-29.257143 31.695238-65.828572 31.695239-36.571429 0-65.828571-14.628571-65.828571-31.695239s29.257143-31.695238 65.828571-31.695238c36.571429 0 65.828571 14.628571 65.828572 31.695238" fill="#FFBDA9" p-id="2007"></path><path d="M719.238095 804.571429c-7.314286 0-12.190476-2.438095-17.066666-7.314286-104.838095-104.838095-275.504762-104.838095-380.342858 0-9.752381 9.752381-24.380952 9.752381-34.133333 0s-9.752381-24.380952 0-34.133333c124.342857-124.342857 324.266667-124.342857 448.609524 0 9.752381 9.752381 9.752381 24.380952 0 34.133333-4.87619 4.87619-12.190476 7.314286-17.066667 7.314286z" fill="#F37E5A" p-id="2008"></path></svg>