<?xml version="1.0" standalone="no"?><!DOCTYPE svg PUBLIC "-//W3C//DTD SVG 1.1//EN" "http://www.w3.org/Graphics/SVG/1.1/DTD/svg11.dtd"><svg t="1541312494538" class="icon" style="" viewBox="0 0 1181 1024" version="1.1" xmlns="http://www.w3.org/2000/svg" p-id="6137" xmlns:xlink="http://www.w3.org/1999/xlink" width="230.6640625" height="200"><defs><style type="text/css"></style></defs><path d="M369.270154 853.346462H258.481231c-30.562462 0-55.374769-25.481846-55.374769-56.91077v-113.782154c0-31.389538 24.812308-56.871385 55.374769-56.871384h110.788923c30.601846 0 55.414154 25.481846 55.414154 56.871384v113.821539c0 31.428923-24.812308 56.871385-55.414154 56.871385m313.895384 0h-110.788923c-30.562462 0-55.374769-25.442462-55.374769-56.91077V170.653538c0-31.389538 24.812308-56.871385 55.374769-56.871384h110.788923c30.601846 0 55.414154 25.481846 55.414154 56.871384v625.821539c0 31.428923-24.812308 56.871385-55.414154 56.871385m313.895385 0h-110.788923c-30.562462 0-55.374769-25.481846-55.374769-56.91077v-398.178461c0-31.428923 24.812308-56.910769 55.374769-56.910769h110.788923c30.562462 0 55.414154 25.481846 55.414154 56.871384v398.217846c0 31.507692-24.812308 56.910769-55.414154 56.91077M1126.321231 1024H55.414154C24.812308 1024 0 998.596923 0 967.128615V56.871385C0 25.481846 24.812308 0 55.414154 0c30.562462 0 55.374769 25.481846 55.374769 56.871385v853.346461h1015.532308c30.562462 0 55.374769 25.481846 55.374769 56.910769 0 31.468308-24.812308 56.871385-55.374769 56.871385" fill="#CDCFD2" p-id="6138"></path></svg>